<svg width="24" height="24" viewBox="0 0 24 24" fill="none" xmlns="http://www.w3.org/2000/svg">
<path d="M19.7089 2.57143V0H4.28571V2.57143H0V4.60714C0 6.32143 0.508928 7.97089 1.43357 9.24696C2.14768 10.2327 3.26411 10.913 4.26804 11.2404C4.55946 12.8095 5.35018 14.3009 6.95679 15.517C8.13536 16.4095 9.55232 17.0636 10.8214 17.3309V21.6429H6.85714V24H17.1429V21.6429H13.1786V17.3309C14.4477 17.063 15.8641 16.4095 17.0432 15.517C18.6504 14.3009 19.4405 12.8095 19.732 11.2404C20.7359 10.913 21.8523 10.2327 22.5664 9.24696C23.4911 7.97089 24 6.32143 24 4.60714V2.57143H19.7089ZM3.34286 7.86429C2.77071 7.07786 2.42304 6.02143 2.36571 4.92857H4.28571V8.53768C4.07464 8.47661 3.59357 8.20982 3.34286 7.86429ZM20.6571 7.86429C20.4107 8.21839 20.0357 8.53821 19.7143 8.53821C19.7143 7.33821 19.7143 6.05839 19.7116 4.92857H21.6348C21.577 6.02143 21.2143 7.06607 20.6571 7.86429Z" fill="#F9B93C"/>
</svg>
