<svg width="38" height="38" viewBox="0 0 38 38" fill="none" xmlns="http://www.w3.org/2000/svg">
<g filter="url(#filter0_d_330_736)">
<path d="M1 19C1 22.5601 2.05568 26.0402 4.03355 29.0003C6.01141 31.9603 8.82263 34.2674 12.1117 35.6298C15.4008 36.9922 19.02 37.3487 22.5116 36.6541C26.0033 35.9596 29.2106 34.2453 31.7279 31.7279C34.2453 29.2106 35.9596 26.0033 36.6541 22.5116C37.3487 19.02 36.9922 15.4008 35.6298 12.1117C34.2674 8.82263 31.9603 6.01141 29.0003 4.03355C26.0402 2.05568 22.5601 1 19 1C14.2261 1 9.64773 2.89642 6.27208 6.27208C2.89642 9.64773 1 14.2261 1 19ZM8.71428 17.7143H24.3357L17.1614 10.5053L19 8.71428L29.2857 19L19 29.2857L17.1614 27.451L24.3357 20.2857H8.71428V17.7143Z" fill="#512E7E"/>
</g>
<defs>
<filter id="filter0_d_330_736" x="0.8" y="0.8" width="36.4" height="36.4" filterUnits="userSpaceOnUse" color-interpolation-filters="sRGB">
<feFlood flood-opacity="0" result="BackgroundImageFix"/>
<feColorMatrix in="SourceAlpha" type="matrix" values="0 0 0 0 0 0 0 0 0 0 0 0 0 0 0 0 0 0 127 0" result="hardAlpha"/>
<feOffset/>
<feGaussianBlur stdDeviation="0.1"/>
<feComposite in2="hardAlpha" operator="out"/>
<feColorMatrix type="matrix" values="0 0 0 0 0.317647 0 0 0 0 0.180392 0 0 0 0 0.494118 0 0 0 1 0"/>
<feBlend mode="normal" in2="BackgroundImageFix" result="effect1_dropShadow_330_736"/>
<feBlend mode="normal" in="SourceGraphic" in2="effect1_dropShadow_330_736" result="shape"/>
</filter>
</defs>
</svg>
